<svg width="18" height="16" viewBox="0 0 18 16" fill="none" xmlns="http://www.w3.org/2000/svg">
<path d="M2.96875 15.9375C1.57812 15.9375 0.6875 14.9141 0.6875 13.6562C0.6875 13.2734 0.789062 12.875 1 12.5078L7.03906 1.97656C7.46875 1.21875 8.22656 0.828125 9 0.828125C9.76562 0.828125 10.5234 1.21094 10.9531 1.97656L16.9922 12.5C17.2031 12.875 17.3047 13.2734 17.3047 13.6562C17.3047 14.9141 16.4141 15.9375 15.0234 15.9375H2.96875ZM3.20312 14.2734H14.7891C15.2344 14.2734 15.5234 13.9219 15.5234 13.5312C15.5234 13.4141 15.4922 13.2656 15.4219 13.1328L9.60938 2.95312C9.47656 2.71875 9.23438 2.61719 9 2.61719C8.75781 2.61719 8.50781 2.71094 8.375 2.95312L2.57031 13.125C2.5 13.2578 2.47656 13.4062 2.47656 13.5312C2.47656 13.9219 2.75781 14.2734 3.20312 14.2734ZM9 10.4297C8.53125 10.4297 8.25781 10.1719 8.24219 9.69531L8.125 6.13281C8.10938 5.64062 8.46875 5.28906 8.99219 5.28906C9.51562 5.28906 9.88281 5.64062 9.86719 6.14062L9.74219 9.6875C9.72656 10.1719 9.46094 10.4297 9 10.4297ZM9 13.0547C8.46875 13.0547 8.03125 12.6875 8.03125 12.1641C8.03125 11.6484 8.46094 11.2734 9 11.2734C9.54688 11.2734 9.96875 11.6406 9.96875 12.1641C9.96875 12.6875 9.53906 13.0547 9 13.0547Z" fill="#4B4B4B"/>
</svg>
