<svg width="255" height="39" viewBox="0 0 255 39" fill="none" xmlns="http://www.w3.org/2000/svg">
<g clip-path="url(#clip0_98_55490)">
<path d="M14.9239 39C10.3368 39 6.70235 37.7061 4.02251 35.1164C1.34084 32.5267 0 28.8218 0 23.9999V15.0001C0 10.1782 1.34084 6.47331 4.02251 3.88362C6.70419 1.29578 10.3368 0 14.9239 0C19.5111 0 22.9947 1.25855 25.4833 3.7775C27.97 6.29459 29.2152 9.75 29.2152 14.1437V14.4658H22.3344V13.9296C22.3344 11.716 21.7256 9.89336 20.508 8.46539C19.2904 7.03743 17.429 6.32251 14.9239 6.32251C12.4188 6.32251 10.5133 7.09142 9.10261 8.6255C7.69188 10.1614 6.9856 12.2503 6.9856 14.894V24.1078C6.9856 26.7162 7.69188 28.7957 9.10261 30.3484C10.5133 31.9011 12.4538 32.6793 14.9239 32.6793C17.3941 32.6793 19.2904 31.957 20.508 30.5104C21.7256 29.0638 22.3344 27.2523 22.3344 25.0722V24.1078H29.2152V24.8581C29.2152 29.25 27.9718 32.7054 25.4833 35.2244C22.9947 37.7415 19.4762 39.0019 14.9239 39.0019V39Z" fill="#FF5F5F"/>
<path d="M50.5361 39C45.8791 39 42.1748 37.7061 39.4232 35.1164C36.6716 32.5267 35.2958 28.8218 35.2958 23.9999V15.0001C35.2958 10.1782 36.6716 6.47332 39.4232 3.88362C42.1748 1.29578 45.8791 0 50.5361 0C55.1932 0 58.8975 1.29578 61.6509 3.88362C64.4025 6.47332 65.7783 10.1782 65.7783 15.0001V23.9999C65.7783 28.8218 64.4025 32.5267 61.6509 35.1164C58.8994 37.7061 55.195 39 50.5361 39ZM50.5361 32.6794C53.1479 32.6794 55.1748 31.9123 56.6223 30.3764C58.068 28.8404 58.7927 26.7869 58.7927 24.2158V14.7879C58.7927 12.2168 58.0698 10.1633 56.6223 8.62736C55.1748 7.09142 53.1461 6.32438 50.5361 6.32438C47.9262 6.32438 45.9398 7.09328 44.4775 8.62736C43.0135 10.1633 42.2814 12.2168 42.2814 14.7879V24.2158C42.2814 26.7869 43.0135 28.8423 44.4775 30.3764C45.9416 31.9123 47.9611 32.6794 50.5361 32.6794Z" fill="#FF5F5F"/>
<path d="M72.8374 38.2497V0.750244H85.8044L92.2087 33.4277H93.1615L99.564 0.750244H132.009V38.2497H105.755V5.9464H104.802L98.4513 38.2497H86.9134L80.5624 5.9464H79.6096V38.2497H72.8356H72.8374Z" fill="#FF5F5F"/>
<path d="M143.808 38.9999C142.397 38.9999 141.205 38.5251 140.236 37.5794C139.265 36.6336 138.781 35.4104 138.781 33.9099C138.781 32.4093 139.265 31.188 140.236 30.2403C141.205 29.2946 142.397 28.8198 143.808 28.8198C145.219 28.8198 146.455 29.2946 147.407 30.2403C148.36 31.1861 148.837 32.4093 148.837 33.9099C148.837 35.4104 148.36 36.6336 147.407 37.5794C146.455 38.5251 145.256 38.9999 143.808 38.9999Z" fill="#FF5F5F"/>
<path d="M155.186 38.2497V0.750244H178.473V7.17888H162.171V16.2326H177.202V22.6612H162.171V38.2497H155.186Z" fill="#FF5F5F"/>
<path d="M183.448 38.2497V0.750244H190.434V38.2497H183.448Z" fill="#FF5F5F"/>
<path d="M197.419 38.2497V0.750244H213.509C215.838 0.750244 217.867 1.16169 219.596 1.98272C221.325 2.80562 222.665 3.96549 223.618 5.4642C224.571 6.96291 225.047 8.73158 225.047 10.7683V11.4106C225.047 13.6615 224.518 15.4823 223.46 16.8749C222.401 18.2675 221.097 19.2859 219.544 19.9282V20.8926C220.955 20.9652 222.049 21.4548 222.825 22.3652C223.602 23.2756 223.99 24.482 223.99 25.9807V38.2478H217.004V26.9972C217.004 26.1408 216.783 25.4445 216.342 24.9084C215.901 24.3722 215.169 24.1041 214.146 24.1041H204.407V38.246H197.421L197.419 38.2497ZM204.405 17.6792H212.766C214.425 17.6792 215.72 17.223 216.656 16.3126C217.591 15.4022 218.058 14.1958 218.058 12.6971V12.1609C218.058 10.6604 217.6 9.4558 216.682 8.54541C215.764 7.63501 214.459 7.17888 212.766 7.17888H204.405V17.6792Z" fill="#FF5F5F"/>
<path d="M230.867 38.2497V0.750244H255V7.17888H237.852V16.1246H255V22.5532H237.852V31.821H255V38.2497H230.867Z" fill="#FF5F5F"/>
</g>
<defs>
<clipPath id="clip0_98_55490">
<rect width="255" height="39" fill="white"/>
</clipPath>
</defs>
</svg>
